<?xml version="1.0" encoding="utf-8"?>
<!-- Generator: Adobe Illustrator 20.0.0, SVG Export Plug-In . SVG Version: 6.00 Build 0)  -->
<svg version="1.1" id="Layer_1" xmlns="http://www.w3.org/2000/svg" xmlns:xlink="http://www.w3.org/1999/xlink" x="0px" y="0px"
	 viewBox="0 0 231.8 57.8" style="enable-background:new 0 0 231.8 57.8;" xml:space="preserve">
<style type="text/css">
	.st0{fill:#F7BCAE;}
	.st1{fill:#F7BCAE;stroke:#3D4752;stroke-miterlimit:10;}
	.st2{fill:none;stroke:#3D4752;stroke-linejoin:round;}
	.st3{fill:#3D4752;}
	.st4{fill:none;stroke:#3D4752;stroke-miterlimit:10;}
</style>
<path class="st0" d="M142.7,55.9H72.9c-0.6,0-1.1-0.5-1.1-1.1V3c0-0.6,0.5-1.1,1.1-1.1h69.8c0.6,0,1.1,0.5,1.1,1.1v51.8
	C143.8,55.4,143.3,55.9,142.7,55.9z"/>
<title>artifacts</title>
<polygon class="st1" points="20.7,1.9 34.2,14.5 34.2,44 0.5,44 0.5,1.9 "/>
<polygon class="st2" points="20.7,1.9 20.7,14.5 34.2,14.5 "/>
<path class="st3" d="M13.5,52.9c0-1.5-0.9-2.1-2.4-2.2h-1v4.3h1C12.5,55,13.5,54.4,13.5,52.9 M11.2,50c1.8,0.1,3.1,1,3.1,2.9
	c0,1.3-0.8,2.4-2,2.7c-1,0.2-2,0.3-3.1,0.2V50H11.2z"/>
<path class="st3" d="M16.7,55.3c0.6,0,1.1-0.4,1.1-1c0-0.1,0-0.2,0-0.3c-0.8,0-1.9,0-1.9,0.7c0,0.4,0.3,0.6,0.7,0.6
	C16.6,55.3,16.6,55.3,16.7,55.3 M15.1,54.7c0-1.2,1.4-1.3,2.7-1.3c0.1-0.4-0.2-0.9-0.7-0.9c-0.1,0-0.2,0-0.3,0
	c-0.4,0-0.8,0.2-1.1,0.4l-0.4-0.5c0.4-0.4,1-0.6,1.6-0.6c0.8-0.1,1.5,0.5,1.6,1.2c0,0.1,0,0.2,0,0.3c0,0.8,0,1.6,0.1,2.4h-0.7
	c0-0.2-0.1-0.4-0.1-0.6h0c-0.3,0.4-0.8,0.7-1.3,0.6c-0.6,0.1-1.3-0.3-1.4-1C15.1,54.8,15.1,54.8,15.1,54.7z"/>
<path class="st3" d="M20.9,55.8c-0.6,0.1-1.1-0.4-1.1-0.9c0-0.1,0-0.2,0-0.3v-2.1h-0.7v-0.6h0.7v-1.1h0.8v1.1h1v0.6h-1v2
	c0,0.4,0.1,0.6,0.5,0.6c0.2,0,0.3,0,0.4-0.1l0,0.6C21.4,55.8,21.1,55.8,20.9,55.8"/>
<path class="st3" d="M23.6,55.3c0.6,0,1.1-0.4,1.1-1c0-0.1,0-0.2,0-0.3c-0.8,0-1.9,0-1.9,0.7c0,0.4,0.3,0.6,0.7,0.6
	C23.6,55.3,23.6,55.3,23.6,55.3 M22.1,54.7c0-1.2,1.4-1.3,2.7-1.3c0.1-0.4-0.2-0.9-0.7-0.9c-0.1,0-0.2,0-0.3,0
	c-0.4,0-0.8,0.2-1.1,0.4l-0.4-0.5c0.4-0.4,1-0.6,1.6-0.6c0.8-0.1,1.5,0.5,1.6,1.2c0,0.1,0,0.2,0,0.3c0,0.8,0,1.6,0.1,2.4h-0.7
	c0-0.2-0.1-0.4-0.1-0.6h0c-0.3,0.4-0.8,0.7-1.3,0.6c-0.6,0.1-1.3-0.3-1.4-1C22.1,54.8,22.1,54.8,22.1,54.7z"/>
<path class="st3" d="M101.5,32.6c-1,0.5-2.3,0.6-3.4,0.3c-1.5-0.7-2.2-2.4-1.6-4c0.5-1.1,1.6-1.8,2.8-1.8c0.8,0,1.5,0.2,2.1,0.7
	l-0.6,0.6c-0.4-0.4-1-0.7-1.6-0.6c-1.3,0.1-2.2,1.1-2.2,2.4c0.1,1.2,1,2.1,2.2,2.2c0.5,0,0.9-0.1,1.3-0.3v-1.6h-1.3v-0.7h2.1V32.6"
	/>
<path class="st3" d="M102.8,32.9c0-1.3,0-2.6,0-3.8h0.7c0,0.2,0,0.5,0,0.6h0c0.3-0.6,0.9-0.9,1.5-0.7l0,0.7
	c-0.6-0.2-1.2,0.1-1.4,0.7c-0.1,0.2-0.1,0.3,0,0.5v2H102.8"/>
<path class="st3" d="M107.3,32.4c0.8,0.1,1.4-0.5,1.5-1.3c0.1-0.8-0.5-1.4-1.3-1.5c-0.8-0.1-1.4,0.5-1.5,1.3c0,0,0,0.1,0,0.1
	c-0.1,0.7,0.4,1.3,1.1,1.4C107.1,32.4,107.2,32.4,107.3,32.4 M107.4,29c1.1,0,2,0.9,2,2.1c0,1.1-0.9,2-2.1,2c-1.1,0-2-0.9-2-2
	c-0.1-1,0.7-2,1.8-2C107.2,29,107.3,29,107.4,29z"/>
<path class="st3" d="M113.9,29.1c0,1.3,0,2.6,0,3.8h-0.7c0-0.2,0-0.5,0-0.6c-0.2,0.5-0.7,0.7-1.3,0.7c-0.8,0-1.4-0.5-1.4-1.3
	c0-0.1,0-0.2,0-0.3v-2.4h0.8v2.1c0,0.7,0.2,1.2,0.9,1.2c0.6,0,1.1-0.6,1-1.2c0,0,0-0.1,0-0.1v-2H113.9"/>
<path class="st3" d="M117.3,32.4c0.8-0.1,1.3-0.7,1.3-1.5c-0.1-0.7-0.6-1.2-1.3-1.3c-0.8,0.1-1.3,0.7-1.3,1.5
	C116,31.8,116.6,32.3,117.3,32.4 M117.4,33c-0.5,0-1-0.2-1.4-0.7h0v2.5h-0.8v-5.8h0.7v0.6h0c0.3-0.5,0.8-0.7,1.4-0.7
	c1.1,0.1,2,1,1.9,2.1C119.3,32.1,118.4,33,117.4,33z"/>
<path class="st4" d="M231.8,57.2c-2.5,0-4.5-2-4.5-4.5V33.5c0-2.5-2-4.5-4.5-4.5c2.5,0,4.5-2,4.5-4.5V5c0-2.5,2-4.5,4.5-4.5"/>
<path class="st3" d="M176.4,28.3h2.1l-1.1-2.7L176.4,28.3z M175.5,30.4h-0.9l2.5-5.7h0.7l2.5,5.7h-0.9l-0.6-1.4h-2.7L175.5,30.4z"/>
<path class="st3" d="M181,30.4c0-1.3,0-2.6,0-3.8h0.7c0,0.2,0,0.5,0,0.6h0c0.2-0.5,0.7-0.8,1.2-0.7c0.8,0,1.4,0.5,1.4,1.3
	c0,0.1,0,0.2,0,0.3v2.4h-0.8v-2.1c0-0.7-0.2-1.2-0.9-1.2c-0.6,0-1.1,0.6-1,1.2c0,0,0,0.1,0,0.1v2H181"/>
<path class="st3" d="M185.7,30.4c0-1.3,0-2.6,0-3.8h0.7c0,0.2,0,0.5,0,0.6h0c0.2-0.5,0.7-0.8,1.2-0.7c0.8,0,1.4,0.5,1.4,1.3
	c0,0.1,0,0.2,0,0.3v2.4h-0.8v-2.1c0-0.7-0.2-1.2-0.9-1.2c-0.6,0-1.1,0.6-1,1.2c0,0,0,0.1,0,0.1v2H185.7"/>
<path class="st3" d="M192.1,29.9c0.8,0.1,1.4-0.5,1.5-1.3c0.1-0.8-0.5-1.4-1.3-1.5c-0.8-0.1-1.4,0.5-1.5,1.3c0,0,0,0.1,0,0.1
	c-0.1,0.7,0.4,1.3,1.1,1.4C192,29.9,192,29.9,192.1,29.9 M192.3,26.5c1.1,0,2,0.9,2,2.1s-0.9,2-2.1,2c-1.1,0-2-0.9-2-2
	c-0.1-1,0.7-2,1.8-2C192.1,26.5,192.2,26.5,192.3,26.5L192.3,26.5z"/>
<path class="st3" d="M196.6,30.5c-0.6,0.1-1.1-0.4-1.1-0.9c0-0.1,0-0.2,0-0.3v-2.1h-0.7v-0.6h0.7v-1.1h0.8v1.1h1v0.6h-1v2
	c0,0.4,0.1,0.6,0.5,0.6c0.2,0,0.3,0,0.4-0.1l0,0.6C197,30.5,196.8,30.5,196.6,30.5"/>
<path class="st3" d="M199.3,29.9c0.6,0,1.1-0.4,1.1-1c0-0.1,0-0.2,0-0.3c-0.8,0-1.9,0-1.9,0.7c0,0.4,0.3,0.6,0.7,0.6
	C199.3,29.9,199.3,29.9,199.3,29.9 M197.8,29.4c0-1.2,1.4-1.3,2.7-1.3c0.1-0.4-0.2-0.9-0.7-0.9c-0.1,0-0.2,0-0.3,0
	c-0.4,0-0.8,0.2-1.1,0.4l-0.4-0.5c0.4-0.4,1-0.6,1.6-0.6c0.8-0.1,1.5,0.5,1.6,1.2c0,0.1,0,0.2,0,0.3c0,0.8,0,1.6,0.1,2.4h-0.7
	c0-0.2-0.1-0.4-0.1-0.6h0c-0.3,0.4-0.8,0.7-1.3,0.6c-0.6,0.1-1.3-0.3-1.4-1C197.8,29.5,197.8,29.4,197.8,29.4L197.8,29.4z"/>
<path class="st3" d="M203.6,30.5c-0.6,0.1-1.1-0.4-1.1-0.9c0-0.1,0-0.2,0-0.3v-2.1h-0.7v-0.6h0.7v-1.1h0.8v1.1h1v0.6h-1v2
	c0,0.4,0.1,0.6,0.5,0.6c0.2,0,0.3,0,0.4-0.1l0,0.6C204,30.5,203.8,30.5,203.6,30.5"/>
<path class="st3" d="M205.4,24.7c0.3,0,0.5,0.2,0.5,0.5c0,0.3-0.2,0.5-0.5,0.5c-0.3,0-0.5-0.2-0.5-0.5
	C204.9,25,205.1,24.7,205.4,24.7C205.4,24.7,205.4,24.7,205.4,24.7 M205.8,30.4H205v-3.8h0.8V30.4L205.8,30.4z"/>
<path class="st3" d="M208.8,29.9c0.8,0.1,1.4-0.5,1.5-1.3c0.1-0.8-0.5-1.4-1.3-1.5c-0.8-0.1-1.4,0.5-1.5,1.3c0,0,0,0.1,0,0.1
	c-0.1,0.7,0.4,1.3,1.1,1.4C208.6,29.9,208.7,29.9,208.8,29.9 M208.9,26.5c1.1,0,2,0.9,2,2.1s-0.9,2-2.1,2c-1.1,0-2-0.9-2-2
	c-0.1-1,0.7-2,1.8-2C208.7,26.5,208.8,26.5,208.9,26.5L208.9,26.5z"/>
<path class="st3" d="M212.1,30.4c0-1.3,0-2.6,0-3.8h0.7c0,0.2,0,0.5,0,0.6h0c0.2-0.5,0.7-0.8,1.2-0.7c0.8,0,1.4,0.5,1.4,1.3
	c0,0.1,0,0.2,0,0.3v2.4h-0.8v-2.1c0-0.7-0.2-1.2-0.9-1.2c-0.6,0-1.1,0.6-1,1.2c0,0,0,0.1,0,0.1v2H212.1"/>
<path class="st4" d="M71.8,7.1V3l0.3-0.8L73,1.9h4.1 M71.8,12v-0.8 M71.8,24.4v-8.2 M71.8,29.3v-0.8 M71.8,41.6v-8.2 M71.8,46.5
	v-0.8 M77.1,55.9H73l-0.8-0.3l-0.3-0.8v-4.1 M82.1,55.9h-0.8 M94.6,55.9h-8.3 M99.5,55.9h-0.8 M112,55.9h-8.3 M117,55.9h-0.8
	 M129.4,55.9h-8.3 M134.4,55.9h-0.8 M143.8,50.7v4.1l-0.3,0.8l-0.8,0.3h-4.1 M143.8,45.7v0.8 M143.8,33.4v8.2 M143.8,28.5v0.8
	 M143.8,16.1v8.2 M143.8,11.2V12 M138.6,1.9h4.1l0.8,0.3l0.3,0.8v4.1 M133.6,1.9h0.8 M121.1,1.9h8.3 M116.2,1.9h0.8 M103.7,1.9h8.3
	 M98.7,1.9h0.8 M86.2,1.9h8.3 M81.3,1.9h0.8"/>
</svg>
