<svg id="Calque_1" data-name="Calque 1" xmlns="http://www.w3.org/2000/svg" viewBox="0 0 593.33 156.33"><defs><style>.cls-1{fill:#f3702a;}.cls-2{fill:#fff;}</style></defs><title>SonarCloud White</title><path class="cls-1" d="M576,76.3a27.54,27.54,0,0,0-13.13-8.83c0-.11,0-.21,0-.32a27.41,27.41,0,0,0-54.82,0c0,.12,0,.25,0,.37a27.41,27.41,0,1,0,27.49,45.65A27.4,27.4,0,0,0,576,76.3Zm-21.21,37.88a20.53,20.53,0,0,1-20.51-20.51,3.45,3.45,0,1,0-6.9,0,27.24,27.24,0,0,0,3.87,14,20.5,20.5,0,1,1-7.86-33.28l.08,0a9.59,9.59,0,0,1,2.24,1.08,3.45,3.45,0,1,0,4.49-5.24,15.45,15.45,0,0,0-4.46-2.35,27.32,27.32,0,0,0-9.44-1.67c-.44,0-.88,0-1.32,0a20.51,20.51,0,1,1,32.38,17.58,3.45,3.45,0,1,0,4,5.62,27.5,27.5,0,0,0,10.53-15.06,20.51,20.51,0,0,1-7.1,39.75Z"/><path class="cls-2" d="M11.86,101.89a29.92,29.92,0,0,0,13.23,3.74c4.65,0,6.57-1.62,6.57-4.14s-1.51-3.74-7.27-5.66c-10.21-3.44-14.15-9-14-14.85,0-9.2,7.89-16.17,20.11-16.17A33.07,33.07,0,0,1,44.4,67.63L41.67,78.24A24.24,24.24,0,0,0,31,75.42c-3.74,0-5.87,1.51-5.87,4,0,2.33,1.93,3.54,8,5.66,9.4,3.23,13.34,8,13.44,15.26,0,9.19-7.27,16-21.42,16-6.47,0-12.22-1.42-16-3.44Z"/><path class="cls-2" d="M100.6,90.07c0,18.09-12.83,26.38-26.08,26.38C60.08,116.45,49,107,49,91S59.47,64.81,75.34,64.81C90.5,64.81,100.6,75.21,100.6,90.07Zm-35.78.51c0,8.49,3.54,14.85,10.11,14.85,6,0,9.8-6,9.8-14.85,0-7.38-2.83-14.87-9.8-14.87C67.56,75.71,64.82,83.29,64.82,90.58Z"/><path class="cls-2" d="M106.08,81.68c0-6.16-.2-11.42-.41-15.76H119l.7,6.76H120a18.08,18.08,0,0,1,15.25-7.88C145.39,64.81,153,71.47,153,86v29.31H137.61V87.95c0-6.37-2.22-10.71-7.78-10.71A8.18,8.18,0,0,0,122,83a10.41,10.41,0,0,0-.61,3.84v28.51H106.08Z"/><path class="cls-2" d="M189.36,115.34l-.91-5h-.3c-3.23,3.95-8.3,6.07-14.15,6.07-10,0-16-7.29-16-15.16,0-12.83,11.52-19,29-18.91v-.7c0-2.63-1.42-6.37-9-6.37A27.8,27.8,0,0,0,164.41,79l-2.84-9.9c3.44-1.93,10.21-4.35,19.2-4.35,16.48,0,21.73,9.7,21.73,21.32v17.18a75.92,75.92,0,0,0,.71,12ZM187.55,92c-8.08-.1-14.35,1.83-14.35,7.78,0,3.95,2.63,5.87,6.07,5.87a8.39,8.39,0,0,0,8-5.66,10.87,10.87,0,0,0,.31-2.63Z"/><path class="cls-2" d="M210.61,82.18c0-7.27-.2-12-.41-16.26h13.24L224,75h.4c2.53-7.17,8.59-10.2,13.34-10.2a16.56,16.56,0,0,1,3.23.19V79.46a21.82,21.82,0,0,0-4.14-.41c-5.66,0-9.5,3-10.52,7.78a18.94,18.94,0,0,0-.3,3.44v25.07H210.61Z"/><path class="cls-2" d="M281.06,113.51a32.76,32.76,0,0,1-14,2.84c-14.76,0-24.36-10-24.36-25s10.31-26,26.28-26a29.64,29.64,0,0,1,12.32,2.53l-2,6.87a20.6,20.6,0,0,0-10.3-2.33c-11.22,0-17.28,8.3-17.28,18.5,0,11.32,7.27,18.29,17,18.29a25.31,25.31,0,0,0,10.92-2.42Z"/><path class="cls-2" d="M287.44,43.58h8.9v71.76h-8.9Z"/><path class="cls-2" d="M351.52,90.48c0,18.09-12.54,26-24.36,26-13.23,0-23.44-9.7-23.44-25.17,0-16.37,10.71-26,24.26-26C342,65.31,351.52,75.52,351.52,90.48Zm-38.81.5c0,10.71,6.16,18.8,14.85,18.8,8.49,0,14.85-8,14.85-19,0-8.3-4.14-18.8-14.65-18.8S312.71,81.68,312.71,91Z"/><path class="cls-2" d="M399.63,102c0,5,.1,9.5.41,13.34h-7.89l-.5-8h-.2a18.42,18.42,0,0,1-16.17,9.1c-7.68,0-16.87-4.24-16.87-21.42V66.42h8.89V93.51c0,9.29,2.84,15.57,10.92,15.57a12.51,12.51,0,0,0,12.53-12.64v-30h8.9Z"/><path class="cls-2" d="M452.6,43.58V102.7c0,4.35.1,9.31.41,12.64h-8l-.41-8.49h-.19c-2.73,5.46-8.69,9.6-16.68,9.6-11.82,0-20.92-10-20.92-24.86-.09-16.27,10-26.28,21.93-26.28,7.48,0,12.53,3.54,14.75,7.48h.2V43.58Zm-8.9,42.76a16.17,16.17,0,0,0-.4-3.74,13.08,13.08,0,0,0-12.83-10.3c-9.2,0-14.66,8.08-14.66,18.89,0,9.91,4.86,18.09,14.46,18.09a13.38,13.38,0,0,0,13-10.61,15.86,15.86,0,0,0,.4-3.84Z"/></svg>