<svg id="Calque_1" data-name="Calque 1" xmlns="http://www.w3.org/2000/svg" viewBox="0 0 383.33 156.33"><defs><style>.cls-1{fill:#fff;}.cls-2{fill:#cb2029;fill-rule:evenodd;}</style></defs><title>SonarLint White</title><path class="cls-1" d="M11.86,101.89a29.92,29.92,0,0,0,13.23,3.74c4.65,0,6.57-1.62,6.57-4.14s-1.51-3.74-7.27-5.66c-10.21-3.44-14.15-9-14-14.85,0-9.2,7.89-16.17,20.11-16.17A33.07,33.07,0,0,1,44.4,67.63L41.67,78.24A24.24,24.24,0,0,0,31,75.42c-3.74,0-5.87,1.51-5.87,4,0,2.33,1.93,3.54,8,5.66,9.4,3.23,13.34,8,13.44,15.26,0,9.19-7.27,16-21.42,16-6.47,0-12.22-1.42-16-3.44Z"/><path class="cls-1" d="M100.6,90.07c0,18.09-12.83,26.38-26.08,26.38C60.08,116.45,49,107,49,91S59.47,64.81,75.34,64.81C90.5,64.81,100.6,75.21,100.6,90.07Zm-35.78.51c0,8.49,3.54,14.85,10.11,14.85,6,0,9.8-6,9.8-14.85,0-7.38-2.83-14.87-9.8-14.87C67.56,75.71,64.82,83.29,64.82,90.58Z"/><path class="cls-1" d="M106.08,81.68c0-6.16-.2-11.42-.41-15.76H119l.7,6.76H120a18.08,18.08,0,0,1,15.25-7.88C145.39,64.81,153,71.47,153,86v29.31H137.61V87.94c0-6.37-2.22-10.71-7.78-10.71A8.18,8.18,0,0,0,122,83a10.41,10.41,0,0,0-.61,3.84v28.51H106.08Z"/><path class="cls-1" d="M189.36,115.34l-.91-5h-.3c-3.23,3.95-8.3,6.07-14.15,6.07-10,0-16-7.29-16-15.16,0-12.83,11.52-19,29-18.91v-.7c0-2.63-1.42-6.37-9-6.37A27.8,27.8,0,0,0,164.41,79l-2.84-9.9c3.44-1.93,10.21-4.35,19.2-4.35,16.48,0,21.73,9.7,21.73,21.32v17.18a75.92,75.92,0,0,0,.71,12ZM187.55,92c-8.08-.1-14.35,1.83-14.35,7.78,0,3.95,2.63,5.87,6.07,5.87a8.39,8.39,0,0,0,8-5.66,10.87,10.87,0,0,0,.31-2.63Z"/><path class="cls-1" d="M210.61,82.18c0-7.27-.2-12-.41-16.26h13.24L224,75h.4c2.53-7.17,8.59-10.2,13.34-10.2a16.56,16.56,0,0,1,3.23.19V79.46a21.82,21.82,0,0,0-4.14-.41c-5.66,0-9.5,3-10.52,7.78a18.94,18.94,0,0,0-.3,3.44v25.07H210.61Z"/><path class="cls-1" d="M246.19,43.58h8.9v71.76h-8.9Z"/><path class="cls-1" d="M275.91,52.68c.1,3-2.12,5.46-5.66,5.46a5.29,5.29,0,0,1-5.36-5.46,5.42,5.42,0,0,1,5.56-5.56A5.28,5.28,0,0,1,275.91,52.68ZM266,115.34V66.42h8.9v48.92Z"/><path class="cls-1" d="M285.61,79.66c0-5-.1-9.2-.4-13.24h7.88l.51,8.09h.2A18,18,0,0,1,310,65.31c6.77,0,17.28,4,17.28,20.82v29.21h-8.9V87.14c0-7.89-2.93-14.46-11.31-14.46a13.07,13.07,0,0,0-12.54,13.24v29.41h-8.9Z"/><path class="cls-1" d="M348,52.37v14h12.74v6.77H348V99.56c0,6.07,1.72,9.51,6.67,9.51a19.49,19.49,0,0,0,5.15-.61l.41,6.67a21.85,21.85,0,0,1-7.89,1.21c-4.14,0-7.48-1.32-9.6-3.74-2.52-2.62-3.43-7-3.43-12.73V73.19h-7.58V66.42h7.58V54.7Z"/><path class="cls-2" d="M361,142.33a8.33,8.33,0,0,1-5.53-3.14c-2.15-2.49-4.57-4-7.08-4s-4.95,1.54-7.11,4a9.7,9.7,0,0,1-14.87,0,9.45,9.45,0,0,0-14.46,0,15.66,15.66,0,0,1-3.67,3.25,13.58,13.58,0,0,1-2.29,1c-3.63,1.3-6.9-1.88-8.92-4.27a9.49,9.49,0,0,0-14.45,0c-3.92,4.62-11.87,6-16.15.87a8.15,8.15,0,0,0-1-2.2,7.07,7.07,0,0,0-1.41-1.52c-3.48-3-8.45.15-10.83,2.85a8.22,8.22,0,0,1-6.57,3.28A1.37,1.37,0,0,1,246,142c-.11-.17-.32-.31-.35-.58a3.56,3.56,0,0,1-.12-.5,5.13,5.13,0,0,1-.09-1.15,4,4,0,0,1,.26-1.09,4.57,4.57,0,0,1,.57-.87c.29-.22,1.11-1.07,1.45-1.33a14.28,14.28,0,0,0,2-2.42c3.76-4.34,12.83-8,17.45-2.66.57.68,1.14,1.35,1.74,2,1.71,1.87,4.6,4.86,7.51,3.16a7.73,7.73,0,0,0,1.59-1.14c1.12-1.12,2.09-2.37,3.11-3.57,2.36-2.77,6.48-3.32,10-3.29a8,8,0,0,1,6,2.41c2.07,2.45,5.37,5.65,9.08,4.3a8.41,8.41,0,0,0,1.54-.76,12.29,12.29,0,0,0,1.68-1.24,18,18,0,0,0,1.8-1.85c3.75-4.38,10.64-5.06,14.61-.44,2.43,2.91,7.34,6.93,11.36,4a19.55,19.55,0,0,0,3.51-3.67,10.71,10.71,0,0,1,7.81-3.87h0c.17,0,.51,0,.68.06,2.54.38,5.88,2.81,7.85,5.13,1,1.14,3,3.85,4.14,5.11.57,1,.79.89.84,1.86,0,.07,0,.21,0,.27a3.12,3.12,0,0,1-.06.55,4.43,4.43,0,0,1-.14.79C361.75,141.81,361.5,142.28,361,142.33Z"/></svg>