<svg id="Calque_1" data-name="Calque 1" xmlns="http://www.w3.org/2000/svg" viewBox="0 0 577.33 156.33"><defs><style>.cls-1{fill:#cb3032;}.cls-2{fill:#fff;}</style></defs><title>SonarSource White</title><path class="cls-1" d="M549.92,116.29h-6.27c0-50.44-41.62-91.48-92.78-91.48V18.54C505.48,18.54,549.92,62.39,549.92,116.29Z"/><path class="cls-1" d="M554.25,82.65C546.73,51,521.09,24.59,488.94,15.36l1.44-5c33.93,9.74,61,37.65,68.95,71.1Z"/><path class="cls-1" d="M559.07,52.95A96,96,0,0,0,521.9,11.46l2.17-3.57a100.24,100.24,0,0,1,38.8,43.31Z"/><path class="cls-2" d="M11.86,101.88a30.07,30.07,0,0,0,13.23,3.73c4.65,0,6.57-1.61,6.57-4.14s-1.51-3.73-7.27-5.66c-10.21-3.43-14.15-9-14-14.85,0-9.19,7.89-16.17,20.11-16.17A33,33,0,0,1,44.4,67.62L41.67,78.23A24.23,24.23,0,0,0,31,75.39c-3.74,0-5.87,1.52-5.87,4.05,0,2.31,1.93,3.53,8,5.65,9.4,3.23,13.34,8,13.44,15.26,0,9.2-7.27,16-21.42,16-6.47,0-12.22-1.41-16-3.43Z"/><path class="cls-2" d="M100.6,90.05c0,18.09-12.83,26.37-26.08,26.37C60.08,116.42,49,106.93,49,91S59.47,64.78,75.34,64.78C90.5,64.78,100.6,75.19,100.6,90.05Zm-35.78.5c0,8.49,3.54,14.85,10.11,14.85,6,0,9.8-6,9.8-14.85,0-7.38-2.83-14.85-9.8-14.85C67.56,75.7,64.82,83.28,64.82,90.55Z"/><path class="cls-2" d="M106.08,81.65c0-6.16-.2-11.42-.41-15.76H119l.7,6.77H120a18.08,18.08,0,0,1,15.25-7.89C145.39,64.78,153,71.45,153,86v29.31H137.61V87.93c0-6.37-2.22-10.71-7.78-10.71A8.19,8.19,0,0,0,122,83a10.47,10.47,0,0,0-.61,3.85v28.49H106.08Z"/><path class="cls-2" d="M189.36,115.31l-.91-4.95h-.3c-3.23,3.94-8.3,6.06-14.15,6.06-10,0-16-7.27-16-15.16,0-12.83,11.52-19,29-18.89v-.71c0-2.62-1.42-6.37-9-6.37A27.81,27.81,0,0,0,164.41,79l-2.84-9.91c3.44-1.92,10.21-4.35,19.2-4.35,16.48,0,21.73,9.7,21.73,21.32v17.18a75.73,75.73,0,0,0,.71,12ZM187.55,92c-8.08-.1-14.35,1.82-14.35,7.78,0,3.94,2.63,5.86,6.07,5.86a8.38,8.38,0,0,0,8-5.65,11,11,0,0,0,.31-2.63Z"/><path class="cls-2" d="M210.61,82.17c0-7.27-.2-12-.41-16.27h13.24L224,75h.4c2.53-7.18,8.59-10.21,13.34-10.21a15.66,15.66,0,0,1,3.23.2V79.44a21.82,21.82,0,0,0-4.14-.41c-5.66,0-9.5,3-10.52,7.78a18.94,18.94,0,0,0-.3,3.44v25.06H210.61Z"/><path class="cls-2" d="M245,106.22a23.36,23.36,0,0,0,11.72,3.53c6.47,0,9.5-3.23,9.5-7.27,0-4.24-2.52-6.57-9.09-9-8.79-3.14-12.94-8-12.94-13.86,0-7.88,6.37-14.34,16.87-14.34a24.36,24.36,0,0,1,12,3l-2.22,6.47a19,19,0,0,0-10-2.84c-5.25,0-8.18,3-8.18,6.67,0,4.05,2.93,5.87,9.29,8.3,8.49,3.23,12.83,7.48,12.83,14.75,0,8.59-6.66,14.65-18.29,14.65A27.78,27.78,0,0,1,242.75,113Z"/><path class="cls-2" d="M326.44,90.45c0,18.1-12.53,26-24.35,26-13.24,0-23.44-9.7-23.44-25.16,0-16.37,10.71-26,24.25-26C316.94,65.29,326.44,75.49,326.44,90.45ZM287.63,91c0,10.71,6.17,18.79,14.87,18.79,8.49,0,14.85-8,14.85-19,0-8.28-4.14-18.8-14.66-18.8S287.63,81.65,287.63,91Z"/><path class="cls-2" d="M374.57,102c0,5,.1,9.5.41,13.33h-7.89l-.51-8h-.19a18.43,18.43,0,0,1-16.17,9.09c-7.68,0-16.89-4.24-16.89-21.42V66.4h8.9V93.49c0,9.29,2.83,15.56,10.92,15.56A12.87,12.87,0,0,0,364.86,101a13.2,13.2,0,0,0,.81-4.55v-30h8.9Z"/><path class="cls-2" d="M385.29,81.65c0-5.75-.1-10.71-.4-15.25h7.77L393,76h.41c2.22-6.57,7.58-10.71,13.54-10.71a10.06,10.06,0,0,1,2.53.3V74a13.26,13.26,0,0,0-3-.31c-6.28,0-10.71,4.74-11.93,11.42a24.85,24.85,0,0,0-.41,4.14v26.08h-8.79Z"/><path class="cls-2" d="M448.17,113.5a32.76,32.76,0,0,1-14,2.83c-14.75,0-24.36-10-24.36-25s10.31-26,26.28-26a29.77,29.77,0,0,1,12.33,2.52l-2,6.88A20.57,20.57,0,0,0,436,72.46c-11.22,0-17.28,8.28-17.28,18.5,0,11.31,7.27,18.29,17,18.29a25.21,25.21,0,0,0,10.92-2.43Z"/><path class="cls-2" d="M458.89,92.47c.19,12,7.88,17,16.77,17a32,32,0,0,0,13.54-2.53l1.52,6.37c-3.13,1.42-8.49,3-16.27,3-15.06,0-24.06-9.9-24.06-24.66s8.69-26.37,22.94-26.37c16,0,20.21,14,20.21,23a33.48,33.48,0,0,1-.3,4.14ZM485,86.1c.1-5.65-2.31-14.45-12.32-14.45-9,0-12.94,8.28-13.65,14.45Z"/></svg>