<?xml version="1.0" encoding="utf-8"?>
<!-- Generator: Adobe Illustrator 21.1.0, SVG Export Plug-In . SVG Version: 6.00 Build 0)  -->
<svg version="1.1" id="Calque_1" xmlns="http://www.w3.org/2000/svg" xmlns:xlink="http://www.w3.org/1999/xlink" x="0px" y="0px"
	 viewBox="0 0 1533 305" style="enable-background:new 0 0 1533 305;" xml:space="preserve">
<style type="text/css">
	.st0{fill:#C92129;}
</style>
<g>
	<path d="M110,182.5c-11.3-4-14.9-6.2-14.9-10.8s4-7.4,11-7.4c7.8,0,15.9,3,20,5.3l4.9-19.9c-5.7-2.8-15.1-5.5-25.9-5.5
		c-22.9,0-37.6,13-37.6,30.4c-0.2,11,7.2,21.4,26.5,27.8c10.6,3.6,13.4,5.9,13.4,10.8c0,4.7-3.6,7.6-12.3,7.6
		c-8.5,0-19.5-3.6-24.8-6.8l-5.1,20.4c7,3.8,17.8,6.6,29.9,6.6c26.5,0,39.9-12.7,39.9-30.1C134.7,197.6,127.5,188.5,110,182.5
		 M196.7,144.3c-29.9,0-49.5,19.1-49.5,49.2c0,29.9,20.8,47.6,47.8,47.6c24.8,0,48.8-15.5,48.8-49.3
		C243.8,163.8,224.9,144.3,196.7,144.3 M195.8,220.5c-12.3,0-18.9-11.9-18.9-27.8c0-13.6,5.3-27.8,18.9-27.8c13,0,18.3,14,18.3,27.6
		C214.1,209.3,207.1,220.5,195.8,220.5 M316.2,144.5c-15.5,0-24.8,8.9-28.5,14.9h-0.6l-1.3-12.9h-25c0.4,8.3,0.8,18,0.8,29.5v63
		h28.7v-53.3c0-2.6,0.2-5.3,0.9-7.2c2.1-5.3,6.8-10.8,14.7-10.8c10.4,0,14.6,8.1,14.6,20V239h28.7v-54.6
		C349.3,157.2,335.1,144.5,316.2,144.5 M449.3,184.4c0-21.9-9.6-40.1-40.5-40.1c-16.8,0-29.5,4.7-35.9,8.3l5.3,18.5
		c6-3.8,16.1-7,25.5-7c14.2,0,16.8,7,16.8,12.1v1.1c-32.7,0-54.3,11.3-54.3,35.4c0,14.7,11.2,28.4,29.9,28.4c11,0,20.4-4,26.5-11.3
		h0.6l1.7,9.3h25.9c-1.1-5.1-1.5-13.6-1.5-22.3V184.4z M421.5,205.4c0,1.7-0.2,3.4-0.6,4.9c-1.9,5.9-7.9,10.6-14.9,10.6
		c-6.4,0-11.3-3.6-11.3-11c0-11,11.7-14.6,26.8-14.6V205.4z M497.9,163.6h-0.8l-1.1-17h-24.6c0.6,7.9,0.8,16.8,0.8,30.4v62h28.7
		v-46.9c0-2.3,0.2-4.5,0.6-6.4c1.9-8.9,9.1-14.6,19.7-14.6c3.2,0,5.5,0.4,7.8,0.8v-27c-2.1-0.4-3.4-0.6-6-0.6
		C513.8,144.3,502.6,150,497.9,163.6 M575.8,186.1c-11.9-4.7-17.2-8.1-17.2-15.7c0-6.8,5.3-12.5,15.1-12.5c8.5,0,15.1,3.2,18.7,5.5
		l4-12.1c-4.9-3.2-13-5.7-22.3-5.7c-19.5,0-31.6,12.1-31.6,26.8c0,11,7.8,19.9,24.4,25.9c12.1,4.5,16.8,8.7,16.8,16.6
		c0,7.8-5.7,13.6-17.6,13.6c-8.3,0-17-3.4-22.1-6.4l-4,12.5c6.4,3.8,15.7,6.4,25.7,6.4c21.4,0,34-11.3,34-27.6
		C599.8,199.9,591.5,191.9,575.8,186.1 M659.9,145.6c-25.2,0-45.4,18-45.4,48.4c0,28.9,19.3,47.1,43.9,47.1
		c21.9,0,45.6-14.7,45.6-48.6C704,164.7,686.2,145.6,659.9,145.6 M659.2,228.6c-16.3,0-27.6-15.1-27.6-35.2c0-17.2,8.5-35.4,28-35.4
		c19.7,0,27.4,19.5,27.4,35C686.9,213.7,675,228.6,659.2,228.6 M801.5,147.5h-16.6v56c0,3.2-0.6,6.2-1.5,8.5
		c-3,7.6-10.8,15.3-21.9,15.3c-14.9,0-20.4-11.9-20.4-29.3v-50.5h-16.6V201c0,31.9,17.2,40.1,31.6,40.1c16.3,0,26.1-9.6,30.2-17h0.4
		l0.9,14.9h14.7c-0.6-7.2-0.8-15.5-0.8-25.1V147.5z M844.2,165.7h-0.6l-0.8-18.1h-14.6c0.6,8.5,0.8,17.8,0.8,28.5v63h16.6v-48.8
		c0-2.6,0.2-5.5,0.6-7.8c2.3-12.5,10.6-21.2,22.3-21.2c2.3,0,4,0,5.7,0.4V146c-1.5-0.2-2.8-0.4-4.5-0.4
		C858.6,145.6,848.4,153.4,844.2,165.7 M933.5,158.9c9.1,0,15.3,2.3,19.3,4.3l3.8-12.7c-4.5-2.5-13.2-4.9-23.1-4.9
		c-29.9,0-49.2,20.6-49.2,48.8c0,28,18,46.7,45.6,46.7c12.3,0,21.9-3.2,26.3-5.3l-2.8-12.5c-4.7,2.1-11,4.3-20.4,4.3
		c-18.1,0-31.8-13-31.8-34.2C901.1,174.5,912.5,158.9,933.5,158.9 M1049.7,188.5c0-16.8-7.8-42.9-37.8-42.9
		c-26.7,0-42.9,21.6-42.9,49.2s16.8,46.3,45,46.3c14.6,0,24.8-3.2,30.6-5.9l-3-11.9c-6,2.6-13.4,4.7-25.3,4.7
		c-16.8,0-31-9.3-31.4-31.8h64.3C1049.5,194.4,1049.7,191.9,1049.7,188.5 M985.1,184.4c1.3-11.5,8.5-26.8,25.5-26.8
		c18.7,0,23.3,16.4,23.1,26.8H985.1z"/>
	<g>
		<path class="st0" d="M1156.6,242h-11.8c0-95.1-78.5-172.5-175-172.5V57.7C1072.8,57.7,1156.6,140.4,1156.6,242z"/>
		<path class="st0" d="M1164.8,178.6c-14.2-59.7-62.5-109.5-123.2-126.9l2.7-9.5c64,18.4,115,71,130,134.1L1164.8,178.6z"/>
		<path class="st0" d="M1173.8,122.6c-14.6-31.9-39.5-59.6-70.1-78.2l4.1-6.7c31.9,19.4,57.9,48.4,73.2,81.7L1173.8,122.6z"/>
	</g>
</g>
<g>
	<path d="M1266.4,233.8v-85.8h25.3c9.2,0,16.2,1.9,20.9,5.7c4.8,3.8,7.1,9.4,7.1,16.8c0,4.4-1.2,8.3-3.6,11.6
		c-2.4,3.3-5.7,5.6-9.9,7c5,1.1,9,3.6,12,7.4c3,3.8,4.6,8.2,4.6,13.2c0,7.6-2.4,13.5-7.3,17.7c-4.9,4.3-11.7,6.4-20.4,6.4H1266.4z
		 M1273.7,186.5h19.8c6-0.1,10.7-1.5,14-4.3c3.3-2.7,5-6.7,5-11.9c0-5.5-1.7-9.6-5.2-12.2c-3.4-2.6-8.6-3.9-15.6-3.9h-18.1V186.5z
		 M1273.7,192.7v35h21.7c6.2,0,11.1-1.6,14.8-4.7s5.4-7.5,5.4-13.1c0-5.3-1.7-9.5-5.2-12.6c-3.5-3.1-8.3-4.6-14.4-4.6H1273.7z"/>
	<path d="M1346.6,233.8h-7.1v-90.5h7.1V233.8z"/>
	<path d="M1361.8,201c0-6.1,1.2-11.6,3.6-16.5c2.4-4.9,5.7-8.7,10.1-11.5c4.3-2.7,9.3-4.1,14.8-4.1c8.5,0,15.4,3,20.6,8.9
		c5.3,5.9,7.9,13.8,7.9,23.6v1.5c0,6.2-1.2,11.7-3.6,16.6c-2.4,4.9-5.7,8.7-10,11.4c-4.3,2.7-9.2,4-14.8,4c-8.4,0-15.3-3-20.6-8.9
		c-5.3-5.9-7.9-13.8-7.9-23.6V201z M1368.9,203c0,7.6,2,13.9,5.9,18.8c3.9,4.9,9.1,7.3,15.5,7.3c6.4,0,11.5-2.4,15.5-7.3
		c3.9-4.9,5.9-11.3,5.9-19.3V201c0-4.9-0.9-9.3-2.7-13.4c-1.8-4-4.3-7.2-7.6-9.4c-3.3-2.2-7-3.3-11.2-3.3c-6.3,0-11.4,2.5-15.4,7.4
		c-4,4.9-5.9,11.4-5.9,19.3V203z"/>
	<path d="M1430.5,201.4c0-10,2.2-17.9,6.6-23.7s10.4-8.7,18-8.7c8.7,0,15.3,3.5,19.8,10.4l0.4-9.2h6.6v62.4c0,8.2-2.3,14.7-6.9,19.5
		c-4.6,4.8-10.8,7.2-18.7,7.2c-4.4,0-8.7-1-12.7-3c-4-2-7.2-4.6-9.5-7.9l3.9-4.2c5,6.1,10.9,9.2,17.8,9.2c5.9,0,10.5-1.7,13.8-5.2
		c3.3-3.5,5-8.3,5.1-14.5v-8c-4.5,6.3-11.1,9.4-19.7,9.4c-7.4,0-13.3-2.9-17.8-8.8c-4.5-5.9-6.7-13.8-6.7-23.9V201.4z M1437.6,202.6
		c0,8.1,1.6,14.5,4.9,19.2c3.3,4.7,7.9,7,13.8,7c8.7,0,14.8-3.9,18.4-11.7v-29.6c-1.6-4.1-4-7.2-7.1-9.3c-3.1-2.1-6.8-3.2-11.2-3.2
		c-5.9,0-10.5,2.3-13.8,7C1439.2,186.7,1437.6,193.5,1437.6,202.6z"/>
</g>
</svg>
